<svg width="20" height="20" viewBox="0 0 20 20" fill="none" xmlns="http://www.w3.org/2000/svg">
<path d="M10.1341 14.3336L9.64194 14.8995C9.92415 15.1449 10.344 15.1449 10.6262 14.8995L10.1341 14.3336ZM15.3341 6.42037H14.5841C14.5841 7.08969 14.3226 7.87945 13.862 8.73058C13.4068 9.57167 12.7904 10.4123 12.1588 11.1676C11.5292 11.9203 10.8974 12.5729 10.4221 13.0379C10.1849 13.27 9.98779 13.4542 9.85088 13.5796C9.78244 13.6423 9.72913 13.6903 9.69345 13.7221C9.67561 13.738 9.66219 13.7498 9.6535 13.7575C9.64915 13.7613 9.64599 13.7641 9.64405 13.7658C9.64308 13.7666 9.64242 13.7672 9.64206 13.7675C9.64189 13.7677 9.64179 13.7677 9.64177 13.7678C9.64176 13.7678 9.6418 13.7677 9.6418 13.7677C9.64186 13.7677 9.64194 13.7676 10.1341 14.3336C10.6262 14.8995 10.6263 14.8994 10.6265 14.8993C10.6266 14.8992 10.6267 14.8991 10.6269 14.8989C10.6272 14.8987 10.6275 14.8984 10.628 14.898C10.6289 14.8972 10.6301 14.8961 10.6317 14.8948C10.6347 14.8921 10.639 14.8883 10.6445 14.8835C10.6555 14.8738 10.6713 14.8599 10.6915 14.8418C10.732 14.8057 10.7904 14.7532 10.8642 14.6856C11.0116 14.5505 11.2208 14.355 11.4711 14.1101C11.9707 13.6213 12.639 12.9315 13.3094 12.1299C13.9777 11.3308 14.6614 10.4051 15.1812 9.4445C15.6956 8.49396 16.0841 7.44674 16.0841 6.42037H15.3341ZM10.1341 14.3336C10.6262 13.7676 10.6263 13.7677 10.6264 13.7677C10.6264 13.7677 10.6264 13.7678 10.6264 13.7678C10.6264 13.7677 10.6263 13.7677 10.6261 13.7675C10.6257 13.7672 10.6251 13.7666 10.6241 13.7658C10.6222 13.7641 10.619 13.7613 10.6147 13.7575C10.606 13.7498 10.5926 13.738 10.5747 13.7221C10.539 13.6903 10.4857 13.6423 10.4173 13.5796C10.2804 13.4542 10.0833 13.27 9.84606 13.0379C9.37074 12.5729 8.73899 11.9203 8.10939 11.1676C7.47772 10.4123 6.86136 9.57167 6.40619 8.73058C5.94558 7.87945 5.68408 7.08969 5.68408 6.42037H4.93408H4.18408C4.18408 7.44674 4.57258 8.49396 5.08698 9.4445C5.60681 10.4051 6.29045 11.3308 6.95877 12.1299C7.62918 12.9315 8.29742 13.6213 8.79711 14.1101C9.04741 14.355 9.25654 14.5505 9.404 14.6856C9.47776 14.7532 9.53616 14.8057 9.57665 14.8418C9.5969 14.8599 9.61268 14.8738 9.62366 14.8835C9.62916 14.8883 9.63345 14.8921 9.63651 14.8948C9.63804 14.8961 9.63926 14.8972 9.64017 14.898C9.64062 14.8984 9.641 14.8987 9.64129 14.8989C9.64144 14.8991 9.6416 14.8992 9.64168 14.8993C9.64182 14.8994 9.64194 14.8995 10.1341 14.3336ZM4.93408 6.42037H5.68408C5.68408 4.04053 7.6608 2.08333 10.1341 2.08333V1.33333V0.583328C6.8636 0.583328 4.18408 3.18122 4.18408 6.42037H4.93408ZM10.1341 1.33333V2.08333C12.6074 2.08333 14.5841 4.04053 14.5841 6.42037H15.3341H16.0841C16.0841 3.18122 13.4046 0.583328 10.1341 0.583328V1.33333Z" fill="url(#paint0_linear_1_433)"/>
<path d="M6.23353 13.4666C4.40246 13.9789 3.2002 14.842 3.2002 15.8203C3.2002 17.3923 6.30435 18.6667 10.1335 18.6667C13.9627 18.6667 17.0669 17.3923 17.0669 15.8203C17.0669 14.842 15.8646 13.9789 14.0335 13.4666" stroke="url(#paint1_linear_1_433)" stroke-width="1.5" stroke-linecap="round" stroke-linejoin="round"/>
<ellipse cx="2.03125" cy="2.03128" rx="2.03125" ry="2.03128" transform="matrix(-1 0 0 1 12.0277 4.15048)" stroke="#111111" stroke-width="1.5"/>
<defs>
<linearGradient id="paint0_linear_1_433" x1="4.93408" y1="7.83344" x2="15.3341" y2="7.83344" gradientUnits="userSpaceOnUse">
<stop stop-color="#5B4C2D"/>
<stop offset="1" stop-color="#C1A15F"/>
</linearGradient>
<linearGradient id="paint1_linear_1_433" x1="3.2002" y1="16.0666" x2="17.0669" y2="16.0666" gradientUnits="userSpaceOnUse">
<stop stop-color="#5B4C2D"/>
<stop offset="1" stop-color="#C1A15F"/>
</linearGradient>
</defs>
</svg>
