<svg width="20" height="20" viewBox="0 0 20 20" fill="none" xmlns="http://www.w3.org/2000/svg">
<path fill-rule="evenodd" clip-rule="evenodd" d="M5.8545 1.00003C5.05469 0.9997 4.50346 0.999463 4.00889 1.1702C3.3996 1.38055 2.86313 1.77616 2.46713 2.30712C2.14571 2.7381 1.95747 3.28377 1.68433 4.07555L1.6472 4.18315L1.11653 5.71955C0.877869 6.4105 1.01138 7.18324 1.46585 7.74145C1.78012 8.12746 2.1502 8.43096 2.55212 8.65088V10.7975V10.8475C2.55211 12.0939 2.55209 13.0986 2.65299 13.8887C2.75776 14.7091 2.98187 15.3998 3.50294 15.9484C4.02401 16.497 4.68008 16.7329 5.45928 16.8432C6.2098 16.9495 7.16405 16.9495 8.34793 16.9494H8.39545H11.8211C11.5837 16.5316 11.3701 16.0716 11.2017 15.5823H8.39545C7.15283 15.5823 6.2862 15.5809 5.63231 15.4883C4.9971 15.3984 4.66071 15.2339 4.42113 14.9817C4.18154 14.7295 4.02533 14.3753 3.93993 13.7065C3.85202 13.0182 3.85064 12.1058 3.85064 10.7975V9.06155C4.86387 9.17447 5.91663 8.84318 6.72025 8.05591C8.51284 9.33533 10.8751 9.33533 12.6677 8.05591C13.0815 8.4614 13.5616 8.74584 14.0682 8.91108C14.4396 8.80417 14.8307 8.74712 15.2344 8.74712C15.6049 8.74712 15.9648 8.79524 16.3086 8.88574C16.9135 8.67366 17.4744 8.29133 17.9221 7.74145C18.3765 7.18324 18.51 6.4105 18.2714 5.71955L17.7407 4.18315L17.7036 4.07555C17.4304 3.28377 17.2422 2.7381 16.9208 2.30712C16.5248 1.77616 15.9883 1.38055 15.379 1.1702C14.8845 0.999463 14.333 0.9997 13.533 1.00003H5.8545ZM12.0746 6.82318C10.6618 7.92349 8.72614 7.92349 7.31335 6.82318V6.24056C7.31335 5.86305 7.02266 5.55701 6.66409 5.55701C6.30552 5.55701 6.01483 5.86305 6.01483 6.24056V6.86881L5.89866 6.99113C4.93043 8.01048 3.34287 7.94629 2.45176 6.85176C2.30228 6.66816 2.25836 6.414 2.33686 6.18675L2.86753 4.65035C3.19272 3.70887 3.31173 3.38833 3.48845 3.15139C3.72604 2.83281 4.04793 2.59545 4.4135 2.46924C4.68541 2.37536 5.01204 2.36714 5.96318 2.36714H13.4243C14.3757 2.36714 14.7025 2.37536 14.9744 2.46924C15.34 2.59545 15.6619 2.83281 15.8995 3.15139C16.0762 3.38833 16.1952 3.70887 16.5204 4.65035L17.0511 6.18675C17.1295 6.414 17.0856 6.66816 16.9361 6.85176C16.045 7.94629 14.4575 8.01048 13.4893 6.99113L13.3731 6.86881V6.24056C13.3731 5.86305 13.0824 5.55701 12.7238 5.55701C12.3653 5.55701 12.0746 5.86305 12.0746 6.24056V6.82318ZM6.23125 11.4811C5.87268 11.4811 5.58199 11.7872 5.58199 12.1647C5.58199 12.5422 5.87268 12.8482 6.23125 12.8482H8.82829C9.18686 12.8482 9.47755 12.5422 9.47755 12.1647C9.47755 11.7872 9.18686 11.4811 8.82829 11.4811H6.23125Z" fill="url(#paint0_linear_1_424)"/>
<path fill-rule="evenodd" clip-rule="evenodd" d="M12.7674 13.3951C12.7674 11.9607 13.872 10.7978 15.2345 10.7978C16.597 10.7978 17.4773 11.9406 17.4773 13.375C17.4773 13.9963 17.2681 14.8455 16.9293 15.625C16.6284 16.3172 16.2254 16.9545 15.7758 17.3282C15.4674 17.5847 15.2824 17.6329 15.2345 17.6329C15.1716 17.6329 14.9803 17.5821 14.6787 17.3455C14.3965 17.124 14.0847 16.7912 13.7936 16.3739C13.2054 15.5309 12.7674 14.4393 12.7674 13.3951ZM15.2345 9.43066C13.1548 9.43066 11.4689 11.2056 11.4689 13.3951C11.4689 14.8115 12.0476 16.1806 12.747 17.1831C13.0995 17.6885 13.4991 18.1248 13.9026 18.4415C14.2869 18.7431 14.7558 19 15.2345 19C15.7281 19 16.2033 18.7149 16.5807 18.4011C16.9813 18.0679 17.3776 17.6137 17.7269 17.099C18.4163 16.0835 19.0001 14.7155 19.0001 13.3951C19.0001 11.2056 17.3142 9.43066 15.2345 9.43066Z" fill="#111111"/>
<path fill-rule="evenodd" clip-rule="evenodd" d="M14.1523 13.0761C14.1523 12.4468 14.6367 11.9368 15.2344 11.9368C15.832 11.9368 16.3165 12.4468 16.3165 13.0761C16.3165 13.7053 15.832 14.2153 15.2344 14.2153C14.6367 14.2153 14.1523 13.7053 14.1523 13.0761Z" fill="url(#paint1_linear_1_424)"/>
<defs>
<linearGradient id="paint0_linear_1_424" x1="1" y1="8.97469" x2="18.3879" y2="8.97469" gradientUnits="userSpaceOnUse">
<stop stop-color="#5B4C2D"/>
<stop offset="1" stop-color="#C1A15F"/>
</linearGradient>
<linearGradient id="paint1_linear_1_424" x1="14.1523" y1="13.0761" x2="16.3165" y2="13.0761" gradientUnits="userSpaceOnUse">
<stop stop-color="#5B4C2D"/>
<stop offset="1" stop-color="#C1A15F"/>
</linearGradient>
</defs>
</svg>
