<svg width="15" height="14" viewBox="0 0 15 14" fill="none" xmlns="http://www.w3.org/2000/svg">
<path d="M7.14922 10.0335L6.82112 10.4108C7.00926 10.5744 7.28917 10.5744 7.47731 10.4108L7.14922 10.0335ZM10.7892 4.49425H10.2892C10.2892 4.96872 10.104 5.52585 9.78073 6.12329C9.46103 6.71405 9.02846 7.3039 8.58567 7.83332C8.14428 8.36109 7.70144 8.8185 7.36832 9.14439C7.20206 9.30704 7.06388 9.43619 6.96786 9.52416C6.91987 9.56813 6.88246 9.60176 6.85741 9.62409C6.84488 9.63526 6.83544 9.6436 6.82932 9.64898C6.82626 9.65168 6.82403 9.65364 6.82265 9.65484C6.82197 9.65544 6.82149 9.65585 6.82124 9.65608C6.82111 9.65619 6.82103 9.65625 6.82101 9.65627C6.82101 9.65628 6.82103 9.65625 6.82103 9.65626C6.82107 9.65622 6.82112 9.65618 7.14922 10.0335C7.47731 10.4108 7.47739 10.4107 7.47749 10.4106C7.47754 10.4106 7.47765 10.4105 7.47775 10.4104C7.47795 10.4102 7.47821 10.41 7.47852 10.4097C7.47915 10.4092 7.47999 10.4084 7.48105 10.4075C7.48318 10.4056 7.48617 10.403 7.48999 10.3997C7.49764 10.3929 7.50865 10.3832 7.52278 10.3706C7.55105 10.3454 7.59184 10.3087 7.64338 10.2615C7.74643 10.1671 7.89262 10.0304 8.06762 9.85922C8.41699 9.51744 8.88415 9.03517 9.35276 8.47487C9.81997 7.91623 10.2974 7.26965 10.6602 6.59924C11.0194 5.93552 11.2892 5.20676 11.2892 4.49425H10.7892ZM7.14922 10.0335C7.47731 9.65618 7.47736 9.65622 7.4774 9.65626C7.4774 9.65625 7.47743 9.65628 7.47742 9.65627C7.4774 9.65625 7.47732 9.65619 7.4772 9.65608C7.47694 9.65585 7.47647 9.65544 7.47578 9.65484C7.4744 9.65364 7.47217 9.65168 7.46911 9.64898C7.46299 9.6436 7.45355 9.63526 7.44103 9.62409C7.41597 9.60176 7.37856 9.56813 7.33057 9.52416C7.23455 9.43619 7.09637 9.30704 6.93012 9.14439C6.59699 8.8185 6.15415 8.36109 5.71276 7.83332C5.26997 7.3039 4.8374 6.71405 4.5177 6.12329C4.19438 5.52585 4.00922 4.96872 4.00922 4.49425H3.50922H3.00922C3.00922 5.20676 3.27905 5.93552 3.63823 6.59924C4.00103 7.26965 4.47846 7.91623 4.94567 8.47487C5.41428 9.03517 5.88144 9.51744 6.23082 9.85922C6.40581 10.0304 6.552 10.1671 6.65505 10.2615C6.70659 10.3087 6.74738 10.3454 6.77565 10.3706C6.78978 10.3832 6.80079 10.3929 6.80844 10.3997C6.81226 10.403 6.81525 10.4056 6.81738 10.4075C6.81844 10.4084 6.81928 10.4092 6.81991 10.4097C6.82022 10.41 6.82048 10.4102 6.82068 10.4104C6.82078 10.4105 6.82089 10.4106 6.82094 10.4106C6.82104 10.4107 6.82112 10.4108 7.14922 10.0335ZM3.50922 4.49425H4.00922C4.00922 2.81404 5.40463 1.43332 7.14922 1.43332V0.933319V0.433319C4.87317 0.433319 3.00922 2.24116 3.00922 4.49425H3.50922ZM7.14922 0.933319V1.43332C8.8938 1.43332 10.2892 2.81404 10.2892 4.49425H10.7892H11.2892C11.2892 2.24116 9.42527 0.433319 7.14922 0.433319V0.933319Z" fill="#64748B"/>
<path d="M4.41887 9.42661C3.13712 9.78524 2.29553 10.3894 2.29553 11.0742C2.29553 12.1746 4.46844 13.0667 7.14887 13.0667C9.82929 13.0667 12.0022 12.1746 12.0022 11.0742C12.0022 10.3894 11.1606 9.78524 9.87887 9.42661" stroke="#64748B" stroke-linecap="round" stroke-linejoin="round"/>
<ellipse cx="1.42188" cy="1.4219" rx="1.42188" ry="1.4219" transform="matrix(-1 0 0 1 8.47479 2.90533)" stroke="#111111" stroke-width="0.812507"/>
</svg>
