<svg width="32" height="30" viewBox="0 0 32 30" fill="none" xmlns="http://www.w3.org/2000/svg">
<path d="M10.4908 0.61326C10.2036 0.961327 9.88262 1.49171 9.78126 1.8232C9.10553 3.81215 7.70338 4.80663 5.03422 5.1547C4.25713 5.27072 3.44625 5.45304 3.22663 5.58563C2.85498 5.81768 2.83809 5.90055 2.93945 6.99447C2.99013 7.64088 3.12527 8.50276 3.24353 8.90055C3.37867 9.46409 3.37867 9.86188 3.20974 10.558C3.02391 11.3702 2.83809 11.6354 1.50351 13.011C0.675735 13.8729 0 14.7017 0 14.8674C0 15.3315 0.574375 16.1602 1.31768 16.7403C3.02391 18.0829 3.53071 19.442 3.12527 21.6796C2.65226 24.3646 2.75362 24.547 5.00044 24.8619C6.82492 25.1105 7.95678 25.558 8.59873 26.2873C8.86902 26.5856 9.46029 27.5138 9.88262 28.3425C10.9131 30.2818 10.9807 30.2983 13.312 29.1878C15.7784 28.0276 16.3528 28.0276 18.7347 29.1713C19.6808 29.6354 20.593 30 20.762 30C21.2012 30 21.6742 29.4033 22.4344 27.9116C23.5325 25.7569 24.3433 25.2265 27.1645 24.8619C27.8572 24.7624 28.5498 24.6133 28.7187 24.5304C29.1749 24.2818 29.2424 23.7017 28.9721 22.1768C28.4653 19.3923 28.6849 18.6133 30.4587 17.0387C31.5906 16.0442 32.1143 15.2486 31.9792 14.7348C31.9285 14.5691 31.2021 13.7072 30.3405 12.8287C29.4958 11.9503 28.7356 11.0718 28.6681 10.8895C28.6005 10.6906 28.6174 10.1602 28.7187 9.71271C28.8201 9.24862 28.9552 8.18785 29.0059 7.35912C29.1073 5.88398 29.0904 5.83425 28.7018 5.58563C28.2288 5.30387 26.776 4.97238 25.9144 4.97238C25.1542 4.97238 24.1913 4.57458 23.6 4.01105C23.3466 3.76243 22.7892 2.88398 22.3668 2.03867C21.6066 0.530386 21.1505 0 20.6099 0C20.4579 0 19.3936 0.447514 18.2448 0.994474C17.0961 1.54144 16.0656 1.98895 15.9642 1.98895C15.8629 1.98895 14.8493 1.54144 13.7174 0.994474C12.5687 0.447514 11.5044 0 11.3186 0C11.1496 0 10.778 0.281767 10.4908 0.61326ZM13.3964 8.85083C14.579 9.33149 15.373 10.8729 15.052 12.0166C14.6972 13.3094 13.6667 14.0884 12.3491 14.0884C10.4063 14.0884 9.03795 12.2486 9.6968 10.5414C10.305 8.98343 11.9098 8.23757 13.3964 8.85083ZM21.5897 9.48066C21.708 9.59669 21.7924 9.9116 21.7924 10.1768C21.7924 10.6077 21.1167 11.337 16.6738 15.6961C11.3523 20.9337 11.1665 21.0829 10.4401 20.4365C9.71369 19.7901 9.88262 19.5746 15.2547 14.3039C19.7146 9.9116 20.4241 9.28177 20.8802 9.28177C21.1505 9.28177 21.4715 9.36464 21.5897 9.48066ZM20.9478 16.1602C21.8769 16.6243 22.4682 17.5525 22.4682 18.5635C22.4682 19.6575 21.6404 20.8011 20.5592 21.1989C18.8699 21.8287 16.8934 20.4199 16.8934 18.5801C16.8934 16.558 19.0895 15.2486 20.9478 16.1602Z" fill="#30B64E"/>
</svg>
